<svg width="3929" height="6180" viewBox="0 0 3929 6180" fill="none" xmlns="http://www.w3.org/2000/svg">
<path d="M150.868 4569.77C115.073 4419.06 100.036 4261.06 83.6386 4107.19C63.6484 3919.58 43.7552 3732.03 23.5331 3544.42C-13.0905 3204.63 -19.1792 2842.59 128.606 2526.63C236.158 2296.7 437.388 2096.74 682.468 2016.85C831.838 1968.15 1001.42 1955.64 1156.19 1981.23C1328.08 2009.65 1472.96 2102.14 1604.98 2210.08C1863.12 2421.14 2045.81 2702.53 2122.33 3028.85C2221.85 3453.29 2174.18 3920.12 2082.7 4340.93C1993.97 4749.09 1825.05 5212.14 1955.81 5628.52C1995.14 5753.73 2092.61 5857.89 2185.55 5946.41C2276.27 6032.83 2386.67 6094.39 2505.22 6134.3C2808.08 6236.25 3155.62 6136.78 3452.67 6060.39" stroke="black" stroke-width="3" stroke-linecap="round"/>
<path d="M1433.12 5996.28C1689.28 5768.16 1976.75 5581.36 2243.88 5366.73C2357.79 5275.2 2467.06 5171.83 2553.31 5053.29C2634.97 4941.07 2680.62 4827.69 2720.71 4695.33C2817.84 4374.67 2862.58 4052.75 2886.34 3718.5C2907.99 3413.86 2872.2 3089.83 2766.13 2803.12C2652.43 2495.82 2472.97 2233.18 2275.93 1975C2131.24 1785.4 1965.9 1591.69 1947.8 1342.78C1933.3 1143.37 2026.87 982.617 2142.81 829.875C2199.74 754.876 2259.44 679.917 2330.7 618.838" stroke="black" stroke-width="3" stroke-linecap="round"/>
<path d="M1176.67 4810.2C1147.35 4701.71 1140.95 4585.85 1130.37 4474.5C1112.63 4287.95 1127.06 4107.76 1180.68 3928.2C1230.41 3761.65 1296.6 3606.38 1392.6 3460.72C1537.2 3241.33 1753.02 3076.7 1975.4 2942.03C2436.58 2662.75 2918.79 2368.46 3250.53 1934.04C3469.54 1647.24 3606.67 1307.36 3677.06 955.429" stroke="black" stroke-width="3" stroke-linecap="round"/>
<path d="M615.684 3832.48C615.684 4051.53 605.099 3394.1 616.13 3175.33C626.037 2978.82 663.724 2801.1 800.453 2652.19C932.401 2508.48 1092.6 2433.56 1270.61 2359.67C1473.68 2275.38 1683.82 2202.92 1875.67 2094.32C2183.92 1919.82 2465.33 1709.97 2722.49 1465.66C2965.44 1234.86 3190.38 963.21 3328 655.346C3423.16 442.485 3493.23 229.125 3540.82 1.75439" stroke="black" stroke-width="3" stroke-linecap="round"/>
<path d="M200.868 4569.77C165.073 4419.06 150.036 4261.06 133.639 4107.19C113.648 3919.58 93.7552 3732.03 73.5331 3544.42C36.9095 3204.63 30.8208 2842.59 178.606 2526.63C286.158 2296.7 487.388 2096.74 732.468 2016.85C881.838 1968.15 1051.42 1955.64 1206.19 1981.23C1378.08 2009.65 1522.96 2102.14 1654.98 2210.08C1913.12 2421.14 2095.81 2702.53 2172.33 3028.85C2271.85 3453.29 2224.18 3920.12 2132.7 4340.93C2043.97 4749.09 1875.05 5212.14 2005.81 5628.52C2045.14 5753.73 2142.61 5857.89 2235.55 5946.41C2326.27 6032.83 2436.67 6094.39 2555.22 6134.3C2858.08 6236.25 3205.62 6136.78 3502.67 6060.39" stroke="black" stroke-width="3" stroke-linecap="round"/>
<path d="M1483.12 5996.28C1739.28 5768.16 2026.75 5581.36 2293.88 5366.73C2407.79 5275.2 2517.06 5171.83 2603.31 5053.29C2684.97 4941.07 2730.62 4827.69 2770.71 4695.33C2867.84 4374.67 2912.58 4052.75 2936.34 3718.5C2957.99 3413.86 2922.2 3089.83 2816.13 2803.12C2702.43 2495.82 2522.97 2233.18 2325.93 1975C2181.24 1785.4 2015.9 1591.69 1997.8 1342.78C1983.3 1143.37 2076.87 982.617 2192.81 829.875C2249.74 754.876 2309.44 679.917 2380.7 618.838" stroke="black" stroke-width="3" stroke-linecap="round"/>
<path d="M1226.67 4810.2C1197.35 4701.71 1190.95 4585.85 1180.37 4474.5C1162.63 4287.95 1177.06 4107.76 1230.68 3928.2C1280.41 3761.65 1346.6 3606.38 1442.6 3460.72C1587.2 3241.33 1803.02 3076.7 2025.4 2942.03C2486.58 2662.75 2968.79 2368.46 3300.53 1934.04C3519.54 1647.24 3656.67 1307.36 3727.06 955.429" stroke="black" stroke-width="3" stroke-linecap="round"/>
<path d="M665.684 3832.48C665.684 4051.53 655.099 3394.1 666.13 3175.33C676.037 2978.82 713.724 2801.1 850.453 2652.19C982.401 2508.48 1142.6 2433.56 1320.61 2359.67C1523.68 2275.38 1733.82 2202.92 1925.67 2094.32C2233.92 1919.82 2515.33 1709.97 2772.49 1465.66C3015.44 1234.86 3240.38 963.21 3378 655.346C3473.16 442.485 3543.23 229.125 3590.82 1.75439" stroke="black" stroke-width="3" stroke-linecap="round"/>
<path d="M250.868 4569.77C215.073 4419.06 200.036 4261.06 183.639 4107.19C163.648 3919.58 143.755 3732.03 123.533 3544.42C86.9095 3204.63 80.8208 2842.59 228.606 2526.63C336.158 2296.7 537.388 2096.74 782.468 2016.85C931.838 1968.15 1101.42 1955.64 1256.19 1981.23C1428.08 2009.65 1572.96 2102.14 1704.98 2210.08C1963.12 2421.14 2145.81 2702.53 2222.33 3028.85C2321.85 3453.29 2274.18 3920.12 2182.7 4340.93C2093.97 4749.09 1925.05 5212.14 2055.81 5628.52C2095.14 5753.73 2192.61 5857.89 2285.55 5946.41C2376.27 6032.83 2486.67 6094.39 2605.22 6134.3C2908.08 6236.25 3255.62 6136.78 3552.67 6060.39" stroke="black" stroke-width="3" stroke-linecap="round"/>
<path d="M1533.12 5996.28C1789.28 5768.16 2076.75 5581.36 2343.88 5366.73C2457.79 5275.2 2567.06 5171.83 2653.31 5053.29C2734.97 4941.07 2780.62 4827.69 2820.71 4695.33C2917.84 4374.67 2962.58 4052.75 2986.34 3718.5C3007.99 3413.86 2972.2 3089.83 2866.13 2803.12C2752.43 2495.82 2572.97 2233.18 2375.93 1975C2231.24 1785.4 2065.9 1591.69 2047.8 1342.78C2033.3 1143.37 2126.87 982.617 2242.81 829.875C2299.74 754.876 2359.44 679.917 2430.7 618.838" stroke="black" stroke-width="3" stroke-linecap="round"/>
<path d="M1276.67 4810.2C1247.35 4701.71 1240.95 4585.85 1230.37 4474.5C1212.63 4287.95 1227.06 4107.76 1280.68 3928.2C1330.41 3761.65 1396.6 3606.38 1492.6 3460.72C1637.2 3241.33 1853.02 3076.7 2075.4 2942.03C2536.58 2662.75 3018.79 2368.46 3350.53 1934.04C3569.54 1647.24 3706.67 1307.36 3777.06 955.429" stroke="black" stroke-width="3" stroke-linecap="round"/>
<path d="M715.684 3832.48C715.684 4051.53 705.099 3394.1 716.13 3175.33C726.037 2978.82 763.724 2801.1 900.453 2652.19C1032.4 2508.48 1192.6 2433.56 1370.61 2359.67C1573.68 2275.38 1783.82 2202.92 1975.67 2094.32C2283.92 1919.82 2565.33 1709.97 2822.49 1465.66C3065.44 1234.86 3290.38 963.21 3428 655.346C3523.16 442.485 3593.23 229.125 3640.82 1.75439" stroke="black" stroke-width="3" stroke-linecap="round"/>
<path d="M300.868 4569.77C265.073 4419.06 250.036 4261.06 233.639 4107.19C213.648 3919.58 193.755 3732.03 173.533 3544.42C136.91 3204.63 130.821 2842.59 278.606 2526.63C386.158 2296.7 587.388 2096.74 832.468 2016.85C981.838 1968.15 1151.42 1955.64 1306.19 1981.23C1478.08 2009.65 1622.96 2102.14 1754.98 2210.08C2013.12 2421.14 2195.81 2702.53 2272.33 3028.85C2371.85 3453.29 2324.18 3920.12 2232.7 4340.93C2143.97 4749.09 1975.05 5212.14 2105.81 5628.52C2145.14 5753.73 2242.61 5857.89 2335.55 5946.41C2426.27 6032.83 2536.67 6094.39 2655.22 6134.3C2958.08 6236.25 3305.62 6136.78 3602.67 6060.39" stroke="black" stroke-width="3" stroke-linecap="round"/>
<path d="M1583.12 5996.28C1839.28 5768.16 2126.75 5581.36 2393.88 5366.73C2507.79 5275.2 2617.06 5171.83 2703.31 5053.29C2784.97 4941.07 2830.62 4827.69 2870.71 4695.33C2967.84 4374.67 3012.58 4052.75 3036.34 3718.5C3057.99 3413.86 3022.2 3089.83 2916.13 2803.12C2802.43 2495.82 2622.97 2233.18 2425.93 1975C2281.24 1785.4 2115.9 1591.69 2097.8 1342.78C2083.3 1143.37 2176.87 982.617 2292.81 829.875C2349.74 754.876 2409.44 679.917 2480.7 618.838" stroke="black" stroke-width="3" stroke-linecap="round"/>
<path d="M1326.67 4810.2C1297.35 4701.71 1290.95 4585.85 1280.37 4474.5C1262.63 4287.95 1277.06 4107.76 1330.68 3928.2C1380.41 3761.65 1446.6 3606.38 1542.6 3460.72C1687.2 3241.33 1903.02 3076.7 2125.4 2942.03C2586.58 2662.75 3068.79 2368.46 3400.53 1934.04C3619.54 1647.24 3756.67 1307.36 3827.06 955.429" stroke="black" stroke-width="3" stroke-linecap="round"/>
<path d="M765.684 3832.48C765.684 4051.53 755.099 3394.1 766.13 3175.33C776.037 2978.82 813.724 2801.1 950.453 2652.19C1082.4 2508.48 1242.6 2433.56 1420.61 2359.67C1623.68 2275.38 1833.82 2202.92 2025.67 2094.32C2333.92 1919.82 2615.33 1709.97 2872.49 1465.66C3115.44 1234.86 3340.38 963.21 3478 655.346C3573.16 442.485 3643.23 229.125 3690.82 1.75439" stroke="black" stroke-width="3" stroke-linecap="round"/>
<path d="M350.868 4569.77C315.073 4419.06 300.036 4261.06 283.639 4107.19C263.648 3919.58 243.755 3732.03 223.533 3544.42C186.91 3204.63 180.821 2842.59 328.606 2526.63C436.158 2296.7 637.388 2096.74 882.468 2016.85C1031.84 1968.15 1201.42 1955.64 1356.19 1981.23C1528.08 2009.65 1672.96 2102.14 1804.98 2210.08C2063.12 2421.14 2245.81 2702.53 2322.33 3028.85C2421.85 3453.29 2374.18 3920.12 2282.7 4340.93C2193.97 4749.09 2025.05 5212.14 2155.81 5628.52C2195.14 5753.73 2292.61 5857.89 2385.55 5946.41C2476.27 6032.83 2586.67 6094.39 2705.22 6134.3C3008.08 6236.25 3355.62 6136.78 3652.67 6060.39" stroke="black" stroke-width="3" stroke-linecap="round"/>
<path d="M1633.12 5996.28C1889.28 5768.16 2176.75 5581.36 2443.88 5366.73C2557.79 5275.2 2667.06 5171.83 2753.31 5053.29C2834.97 4941.07 2880.62 4827.69 2920.71 4695.33C3017.84 4374.67 3062.58 4052.75 3086.34 3718.5C3107.99 3413.86 3072.2 3089.83 2966.13 2803.12C2852.43 2495.82 2672.97 2233.18 2475.93 1975C2331.24 1785.4 2165.9 1591.69 2147.8 1342.78C2133.3 1143.37 2226.87 982.617 2342.81 829.875C2399.74 754.876 2459.44 679.917 2530.7 618.838" stroke="black" stroke-width="3" stroke-linecap="round"/>
<path d="M1376.67 4810.2C1347.35 4701.71 1340.95 4585.85 1330.37 4474.5C1312.63 4287.95 1327.06 4107.76 1380.68 3928.2C1430.41 3761.65 1496.6 3606.38 1592.6 3460.72C1737.2 3241.33 1953.02 3076.7 2175.4 2942.03C2636.58 2662.75 3118.79 2368.46 3450.53 1934.04C3669.54 1647.24 3806.67 1307.36 3877.06 955.429" stroke="black" stroke-width="3" stroke-linecap="round"/>
<path d="M815.684 3832.48C815.684 4051.53 805.099 3394.1 816.13 3175.33C826.037 2978.82 863.724 2801.1 1000.45 2652.19C1132.4 2508.48 1292.6 2433.56 1470.61 2359.67C1673.68 2275.38 1883.82 2202.92 2075.67 2094.32C2383.92 1919.82 2665.33 1709.97 2922.49 1465.66C3165.44 1234.86 3390.38 963.21 3528 655.346C3623.16 442.485 3693.23 229.125 3740.82 1.75439" stroke="black" stroke-width="3" stroke-linecap="round"/>
<path d="M400.868 4569.77C365.073 4419.06 350.036 4261.06 333.639 4107.19C313.648 3919.58 293.755 3732.03 273.533 3544.42C236.91 3204.63 230.821 2842.59 378.606 2526.63C486.158 2296.7 687.388 2096.74 932.468 2016.85C1081.84 1968.15 1251.42 1955.64 1406.19 1981.23C1578.08 2009.65 1722.96 2102.14 1854.98 2210.08C2113.12 2421.14 2295.81 2702.53 2372.33 3028.85C2471.85 3453.29 2424.18 3920.12 2332.7 4340.93C2243.97 4749.09 2075.05 5212.14 2205.81 5628.52C2245.14 5753.73 2342.61 5857.89 2435.55 5946.41C2526.27 6032.83 2636.67 6094.39 2755.22 6134.3C3058.08 6236.25 3405.62 6136.78 3702.67 6060.39" stroke="black" stroke-width="3" stroke-linecap="round"/>
<path d="M1683.12 5996.28C1939.28 5768.16 2226.75 5581.36 2493.88 5366.73C2607.79 5275.2 2717.06 5171.83 2803.31 5053.29C2884.97 4941.07 2930.62 4827.69 2970.71 4695.33C3067.84 4374.67 3112.58 4052.75 3136.34 3718.5C3157.99 3413.86 3122.2 3089.83 3016.13 2803.12C2902.43 2495.82 2722.97 2233.18 2525.93 1975C2381.24 1785.4 2215.9 1591.69 2197.8 1342.78C2183.3 1143.37 2276.87 982.617 2392.81 829.875C2449.74 754.876 2509.44 679.917 2580.7 618.838" stroke="black" stroke-width="3" stroke-linecap="round"/>
<path d="M1426.67 4810.2C1397.35 4701.71 1390.95 4585.85 1380.37 4474.5C1362.63 4287.95 1377.06 4107.76 1430.68 3928.2C1480.41 3761.65 1546.6 3606.38 1642.6 3460.72C1787.2 3241.33 2003.02 3076.7 2225.4 2942.03C2686.58 2662.75 3168.79 2368.46 3500.53 1934.04C3719.54 1647.24 3856.67 1307.36 3927.06 955.429" stroke="black" stroke-width="3" stroke-linecap="round"/>
<path d="M865.684 3832.48C865.684 4051.53 855.099 3394.1 866.13 3175.33C876.037 2978.82 913.724 2801.1 1050.45 2652.19C1182.4 2508.48 1342.6 2433.56 1520.61 2359.67C1723.68 2275.38 1933.82 2202.92 2125.67 2094.32C2433.92 1919.82 2715.33 1709.97 2972.49 1465.66C3215.44 1234.86 3440.38 963.21 3578 655.346C3673.16 442.485 3743.23 229.125 3790.82 1.75439" stroke="black" stroke-width="3" stroke-linecap="round"/>
</svg>
